#!OML:ASF \\Waltz\H\Terrain\Patient Classification 1\Animal2\Wednesday\Animal2.ASF
:FULLY-SPECIFIED
:DEGREES
1096
root 10.9061 16.7508 3.29825 0.961439 0.715756 -1.26863
lowerback 16.578 -3.55913 -0.678794
upperback 6.79452 -4.80995 -1.41358
thorax -2.10029 -2.37971 -0.236141
lowerneck 9.43782 5.75714 13.8346
upperneck -8.24805 8.1025 -16.736
head -2.66743 4.4809 -7.80894
rclavicle 4.29375e-014 -1.03368e-014
rhumerus -32.4251 9.09333 -80.6404
rradius 115.53
rwrist 23.6184
rhand 44.8674 30.8064
rfingers 7.12502
rthumb 66.2856 25.9266
lclavicle 4.29375e-014 -1.03368e-014
lhumerus -26.8627 -10.4492 70.9368
lradius 115.703
lwrist 27.5043
lhand -37.3877 29.0073
lfingers 7.12502
lthumb -10.4486 58.7277
rfemur -43.4689 -6.97432 19.2003
rtibia 87.04
rfoot -0.222878 -0.493184
rtoes 24.8885
lfemur -30.1245 1.81504 -19.1353
ltibia 53.355
lfoot -21.757 -5.88383
ltoes -27.5853
1097
root 10.8927 16.7464 3.37996 1.09702 0.654502 -1.41003
lowerback 16.6502 -3.57547 -0.642175
upperback 6.85038 -4.82179 -1.31886
thorax -2.0736 -2.38638 -0.15345
lowerneck 9.44084 5.80131 13.821
upperneck -8.29966 8.15091 -16.8111
head -2.67206 4.50977 -7.83319
rclavicle 9.14409e-015 -2.54444e-014
rhumerus -32.2275 8.76571 -79.9164
rradius 115.877
rwrist 24.8084
rhand 46.6916 31.7077
rfingers 7.12502
rthumb 67.6514 29.6742
lclavicle 9.14409e-015 -2.54444e-014
lhumerus -26.1819 -9.72619 70.9119
lradius 115.305
lwrist 26.944
lhand -37.517 28.5266
lfingers 7.12502
lthumb -10.5734 58.2407
rfemur -44.3756 -6.46998 19.1804
rtibia 86.2442
rfoot -0.821263 -1.16508
rtoes 24.3009
lfemur -30.0466 1.72309 -18.9046
ltibia 53.5861
lfoot -21.985 -5.90163
ltoes -27.4127
1098
root 10.8846 16.7515 3.47239 1.17614 0.709475 -1.15908
lowerback 16.6872 -3.61725 -0.879339
upperback 6.93037 -4.91045 -1.31516
thorax -1.98801 -2.43451 -0.00294311
lowerneck 9.32334 5.85497 13.6969
upperneck -8.20925 8.20059 -16.8294
head -2.62256 4.53461 -7.80934
rclavicle -1.78906e-014 -7.95139e-016
rhumerus -32.0353 8.50749 -79.3321
rradius 116.206
rwrist 26.2159
rhand 47.684 32.2086
rfingers 7.12502
rthumb 68.3676 31.8767
lclavicle -1.78906e-014 -7.95139e-016
lhumerus -25.7689 -8.91677 71.0733
lradius 114.998
lwrist 26.6332
lhand -37.9875 28.3122
lfingers 7.12502
lthumb -11.0272 58.0025
rfemur -44.9973 -6.20291 18.636
rtibia 85.1948
rfoot -1.63633 -1.54423
rtoes 24.5493
lfemur -29.7436 1.40527 -19.1477
ltibia 53.6167
lfoot -21.9715 -5.85046
ltoes -26.1399
1099
root 10.8779 16.7724 3.56754 1.22933 0.719662 -0.911816
lowerback 16.6798 -3.68347 -1.0479
upperback 7.0669 -5.02172 -1.38476
thorax -1.83085 -2.49305 0.0313631
lowerneck 9.1302 5.93962 13.6291
upperneck -7.99675 8.30933 -16.7638
head -2.51717 4.57951 -7.75921
rclavicle -3.18055e-014 5.56597e-015
rhumerus -31.6551 8.32861 -78.9888
rradius 116.483
rwrist 27.7977
rhand 48.271 32.5492
rfingers 7.12502
rthumb 68.7812 33.2787
lclavicle -3.18055e-014 5.56597e-015
lhumerus -25.5104 -8.09461 71.1763
lradius 114.808
lwrist 26.3762
lhand -38.4555 28.53
lfingers 7.12502
lthumb -11.4786 58.1958
rfemur -45.4169 -5.75275 18.0292
rtibia 83.8329
rfoot -2.43166 -1.712
rtoes 26.3453
lfemur -29.301 1.2029 -19.397
ltibia 53.4922
lfoot -21.8659 -5.88501
ltoes -24.5236
1100
root 10.8629 16.8006 3.64491 1.44799 0.529808 -1.13675
lowerback 16.7199 -3.67578 -0.853587
upperback 7.12112 -4.97832 -1.27427
thorax -1.80107 -2.47026 0.0310737
lowerneck 9.17395 6.00906 13.6548
upperneck -8.01998 8.39625 -16.9508
head -2.50693 4.63333 -7.82679
rclavicle 1.39149e-014 1.11319e-014
rhumerus -31.3224 8.21828 -78.5847
rradius 116.847
rwrist 29.0011
rhand 48.1596 32.3081
rfingers 7.12502
rthumb 68.7033 32.8328
lclavicle 1.39149e-014 1.11319e-014
lhumerus -25.4103 -7.53433 71.4214
lradius 114.763
lwrist 26.2221
lhand -39.0646 28.4572
lfingers 7.12502
lthumb -12.0659 58.0894
rfemur -46.0841 -4.81504 17.9857
rtibia 82.1748
rfoot -2.94827 -1.94833
rtoes 29.7624
lfemur -29.1146 1.21645 -19.0623
ltibia 53.3102
lfoot -21.5927 -5.93771
ltoes -23.6335
1101
root 10.8459 16.8296 3.71972 1.69148 0.312771 -1.26247
lowerback 16.9444 -3.63073 -0.744004
upperback 7.02097 -4.90333 -1.18059
thorax -2.02556 -2.43025 0.0736476
lowerneck 9.48929 6.00947 13.6551
upperneck -8.14638 8.41079 -17.0634
head -2.58897 4.65865 -7.88381
rclavicle -3.18055e-014 -3.97569e-015
rhumerus -31.2771 8.12882 -78.2051
rradius 117.275
rwrist 29.8972
rhand 47.5486 31.7334
rfingers 7.12502
rthumb 68.2711 31.1625
lclavicle -3.18055e-014 -3.97569e-015
lhumerus -25.5704 -7.17898 71.7312
lradius 114.857
lwrist 26.3255
lhand -39.8478 28.3269
lfingers 7.12502
lthumb -12.8211 57.9132
rfemur -46.6787 -3.8884 17.8434
rtibia 80.2525
rfoot -3.62342 -2.12994
rtoes 31.0144
lfemur -28.9713 1.2588 -18.8188
ltibia 53.1259
lfoot -21.34 -6.05237
ltoes -23.8272
1102
root 10.8313 16.8646 3.80284 1.94645 0.170005 -1.24436
lowerback 17.0578 -3.64015 -0.714697
upperback 6.96685 -4.91138 -1.14128
thorax -2.14106 -2.43306 0.109655
lowerneck 9.58135 6.04178 13.6039
upperneck -8.09289 8.46021 -17.0881
head -2.58223 4.68916 -7.88581
rclavicle 4.69132e-014 1.19271e-014
rhumerus -31.0993 8.05221 -77.8922
rradius 117.696
rwrist 30.7473
rhand 46.9025 31.3264
rfingers 7.12502
rthumb 67.8053 29.645
lclavicle 4.69132e-014 1.19271e-014
lhumerus -25.7701 -6.68685 71.8897
lradius 114.959
lwrist 26.5854
lhand -40.386 28.7061
lfingers 7.12502
lthumb -13.3398 58.2591
rfemur -46.9954 -3.13124 17.5724
rtibia 78.0723
rfoot -4.26505 -2.17255
rtoes 30.3528
lfemur -28.8216 1.19833 -18.7348
ltibia 52.972
lfoot -21.1502 -6.23538
ltoes -24.0914
1103
root 10.8155 16.911 3.8894 2.26793 0.0563743 -1.40641
lowerback 16.8925 -3.65098 -0.516407
upperback 7.07269 -4.88723 -0.994649
thorax -1.94594 -2.42194 0.13234
lowerneck 9.48421 6.12618 13.5155
upperneck -8.13228 8.53723 -17.2517
head -2.56059 4.73552 -7.92065
rclavicle 2.78299e-015 -4.77083e-015
rhumerus -30.5107 7.81409 -77.4215
rradius 118.075
rwrist 31.2601
rhand 46.0439 30.9854
rfingers 7.12502
rthumb 67.1734 27.901
lclavicle 2.78299e-015 -4.77083e-015
lhumerus -25.8542 -6.16497 72.1346
lradius 115.033
lwrist 26.8465
lhand -40.5843 29.2892
lfingers 7.12502
lthumb -13.531 58.8296
rfemur -47.1796 -2.46849 17.5349
rtibia 75.6887
rfoot -4.49628 -2.25029
rtoes 30.534
lfemur -28.7592 1.085 -18.4597
ltibia 52.8383
lfoot -20.7127 -6.43487
ltoes -23.5513
1104
root 10.7963 16.956 3.9761 2.50121 -0.0807125 -1.49585
lowerback 16.8904 -3.61663 -0.365452
upperback 7.14895 -4.81629 -0.936527
thorax -1.8714 -2.38569 0.0926917
lowerneck 9.47504 6.14995 13.649
upperneck -8.15492 8.57637 -17.3743
head -2.54678 4.75754 -7.98284
rclavicle -3.53837e-014 2.38542e-015
rhumerus -30.0809 7.44197 -77.1424
rradius 118.522
rwrist 31.3239
rhand 44.6099 30.1601
rfingers 7.12502
rthumb 66.0881 24.9057
lclavicle -3.53837e-014 2.38542e-015
lhumerus -26.1515 -5.89553 72.3662
lradius 115.242
lwrist 27.2752
lhand -40.7097 29.9039
lfingers 7.12502
lthumb -13.6518 59.4362
rfemur -47.2045 -1.82557 17.4104
rtibia 73.1515
rfoot -4.47727 -2.27397
rtoes 30.7272
lfemur -28.5888 1.03316 -18.2723
ltibia 52.6969
lfoot -20.2306 -6.72654
ltoes -23.341
